<?xml version="1.0" encoding="utf-8"?>
<!-- Generator: Adobe Illustrator 21.0.0, SVG Export Plug-In . SVG Version: 6.00 Build 0)  -->
<svg version="1.1" id="Layer_1" xmlns="http://www.w3.org/2000/svg" xmlns:xlink="http://www.w3.org/1999/xlink" x="0px" y="0px"
	 viewBox="0 0 1417.3 595.3" style="enable-background:new 0 0 1417.3 595.3;" xml:space="preserve">
<style type="text/css">
	.st0{fill:#FFFFFF;}
</style>
<g>
	<polygon class="st0" points="74.3,219.1 74.3,330.2 82.1,338 132,288.1 257.8,288.1 204.1,341.9 242,341.9 315.7,268.2 
		315.7,319.1 252.8,382 164,382 138.7,356.6 153.4,341.9 86,341.9 152.9,408.8 264,408.8 342.5,330.2 342.5,219.1 334.7,211.3 
		284.7,261.3 158.8,261.3 212.6,207.5 174.7,207.5 101.1,281.1 101.1,230.2 164,167.4 252.8,167.4 278.2,192.7 263.4,207.5 
		330.9,207.5 264,140.6 152.9,140.6 	"/>
	<g>
		<path class="st0" d="M477.5,231.7h23.8v125.9h-23.8v-51.8H431v51.8h-23.8V231.7H431v46.8h46.5V231.7z"/>
		<path class="st0" d="M545,357.6c-18.3,0-26.9-11-26.9-34.9v-56.1c0-23.9,8.6-34.9,26.9-34.9h44.6c18.3,0,26.9,11,26.9,34.9v56.1
			c0,23.9-8.6,34.9-26.9,34.9H545z M581.3,331.3c8.4,0,11.4-4,11.4-14.7v-43.9c0-10.8-2.9-14.7-11.4-14.7h-28
			c-8.3,0-11.4,4-11.4,14.7v43.9c0,10.8,3,14.7,11.4,14.7H581.3z"/>
		<path class="st0" d="M724.2,231.7V259h-33.5v98.6h-23.8V259h-33.5v-27.3H724.2z"/>
		<path class="st0" d="M767.9,357.6c-18.3,0-26.9-11-26.9-34.9v-56.1c0-23.9,8.6-34.9,26.9-34.9h41c18.3,0,26.9,11,26.9,34.9v14.7
			h-23v-9c0-11-2.9-14.7-11.4-14.7h-25.2c-8.3,0-11.4,3.8-11.4,14.7v44.6c0,11,3,14.7,11.4,14.7h25.2c8.4,0,11.4-3.8,11.4-14.7
			v-10.3h23v16c0,23.9-8.6,34.9-26.9,34.9H767.9z"/>
		<path class="st0" d="M879.4,357.6c-18.3,0-26.9-11-26.9-34.9v-56.1c0-23.9,8.6-34.9,26.9-34.9H924c18.3,0,26.9,11,26.9,34.9v56.1
			c0,23.9-8.6,34.9-26.9,34.9H879.4z M915.7,331.3c8.4,0,11.4-4,11.4-14.7v-43.9c0-10.8-2.9-14.7-11.4-14.7h-28
			c-8.3,0-11.4,4-11.4,14.7v43.9c0,10.8,3,14.7,11.4,14.7H915.7z"/>
		<path class="st0" d="M967.7,231.7h24.1v125.9h-24.1V231.7z"/>
		<path class="st0" d="M1082.6,231.7h23v125.9h-19.1l-54.8-81.8v81.8h-23V231.7h20.2l53.7,80.2V231.7z"/>
		<path class="st0" d="M1146.2,332l71.9-0.1l-15.8,25.6h-79.9V231.7h81.4l15.3,25.5h-72.9v23.9h52.1v23.4h-52.1V332z"/>
		<polygon class="st0" points="1317.5,357.6 1278.6,292.7 1347.5,180.4 1320.5,180.4 1265.4,270.6 1242,231.7 1213.6,231.7 
			1251,294 1180.2,408.8 1206.8,408.8 1264.3,316.1 1289.1,357.6 		"/>
	</g>
</g>
</svg>
